<svg xmlns="http://www.w3.org/2000/svg" xmlns:xlink="http://www.w3.org/1999/xlink" width="1075" zoomAndPan="magnify" viewBox="0 0 806.25 374.250002" height="499" preserveAspectRatio="xMidYMid meet" version="1.0"><defs><g/></defs><g fill="#ffffff" fill-opacity="1"><g transform="translate(347.034089, 143.970403)"><g><path d="M 37.703125 1.21875 C 33.535156 1.21875 29.800781 0.609375 26.5 -0.609375 C 23.195312 -1.835938 20.378906 -3.59375 18.046875 -5.875 C 15.722656 -8.15625 13.925781 -10.925781 12.65625 -14.1875 C 11.394531 -17.457031 10.765625 -21.09375 10.765625 -25.09375 L 10.765625 -42.21875 C 10.765625 -46.21875 11.394531 -49.847656 12.65625 -53.109375 C 13.925781 -56.378906 15.722656 -59.15625 18.046875 -61.4375 C 20.378906 -63.71875 23.195312 -65.46875 26.5 -66.6875 C 29.800781 -67.914062 33.535156 -68.53125 37.703125 -68.53125 C 45.117188 -68.53125 51.210938 -66.507812 55.984375 -62.46875 C 60.765625 -58.4375 63.644531 -52.910156 64.625 -45.890625 L 53.609375 -45.890625 C 53.035156 -49.804688 51.300781 -52.925781 48.40625 -55.25 C 45.507812 -57.582031 41.941406 -58.75 37.703125 -58.75 C 32.804688 -58.75 28.925781 -57.28125 26.0625 -54.34375 C 23.207031 -51.40625 21.78125 -47.363281 21.78125 -42.21875 L 21.78125 -25.09375 C 21.78125 -19.945312 23.1875 -15.90625 26 -12.96875 C 28.820312 -10.03125 32.722656 -8.5625 37.703125 -8.5625 C 41.941406 -8.5625 45.507812 -9.722656 48.40625 -12.046875 C 51.300781 -14.378906 53.035156 -17.503906 53.609375 -21.421875 L 64.625 -21.421875 C 63.5625 -14.316406 60.644531 -8.765625 55.875 -4.765625 C 51.101562 -0.773438 45.046875 1.21875 37.703125 1.21875 Z M 37.703125 1.21875 "/></g></g></g><g fill="#ffffff" fill-opacity="1"><g transform="translate(420.462639, 143.970403)"><g><path d="M 20.8125 -25.09375 C 20.8125 -19.945312 22.21875 -15.90625 25.03125 -12.96875 C 27.84375 -10.03125 31.738281 -8.5625 36.71875 -8.5625 C 41.613281 -8.5625 45.488281 -10.03125 48.34375 -12.96875 C 51.195312 -15.90625 52.625 -19.945312 52.625 -25.09375 L 52.625 -42.21875 C 52.625 -47.363281 51.195312 -51.40625 48.34375 -54.34375 C 45.488281 -57.28125 41.613281 -58.75 36.71875 -58.75 C 31.820312 -58.75 27.945312 -57.28125 25.09375 -54.34375 C 22.238281 -51.40625 20.8125 -47.363281 20.8125 -42.21875 Z M 9.796875 -42.21875 C 9.796875 -46.300781 10.425781 -49.953125 11.6875 -53.171875 C 12.945312 -56.398438 14.738281 -59.15625 17.0625 -61.4375 C 19.394531 -63.71875 22.210938 -65.46875 25.515625 -66.6875 C 28.816406 -67.914062 32.550781 -68.53125 36.71875 -68.53125 C 45.039062 -68.53125 51.609375 -66.207031 56.421875 -61.5625 C 61.234375 -56.914062 63.640625 -50.507812 63.640625 -42.34375 L 63.640625 -25.09375 C 63.640625 -21.007812 63.023438 -17.332031 61.796875 -14.0625 C 60.578125 -10.800781 58.804688 -8.050781 56.484375 -5.8125 C 54.160156 -3.570312 51.320312 -1.835938 47.96875 -0.609375 C 44.625 0.609375 40.875 1.21875 36.71875 1.21875 C 32.550781 1.21875 28.816406 0.609375 25.515625 -0.609375 C 22.210938 -1.835938 19.394531 -3.59375 17.0625 -5.875 C 14.738281 -8.15625 12.945312 -10.925781 11.6875 -14.1875 C 10.425781 -17.457031 9.796875 -21.09375 9.796875 -25.09375 Z M 9.796875 -42.21875 "/></g></g></g><g fill="#ffffff" fill-opacity="1"><g transform="translate(493.89119, 143.970403)"><g><path d="M 9.796875 -42.21875 C 9.796875 -46.300781 10.34375 -49.972656 11.4375 -53.234375 C 12.539062 -56.503906 14.070312 -59.257812 16.03125 -61.5 C 17.988281 -63.738281 20.351562 -65.46875 23.125 -66.6875 C 25.90625 -67.914062 29.007812 -68.53125 32.4375 -68.53125 C 37.414062 -68.53125 41.535156 -67.410156 44.796875 -65.171875 C 48.054688 -62.929688 50.21875 -59.769531 51.28125 -55.6875 L 52.265625 -55.6875 C 52.179688 -57.070312 52.097656 -58.457031 52.015625 -59.84375 C 51.847656 -61.070312 51.742188 -62.359375 51.703125 -63.703125 C 51.671875 -65.046875 51.65625 -66.25 51.65625 -67.3125 L 51.65625 -89.34375 L 62.65625 -89.34375 L 62.65625 0 L 52.265625 0 L 52.265625 -11.625 L 51.28125 -11.625 C 50.21875 -7.539062 48.054688 -4.378906 44.796875 -2.140625 C 41.535156 0.0976562 37.414062 1.21875 32.4375 1.21875 C 29.007812 1.21875 25.90625 0.609375 23.125 -0.609375 C 20.351562 -1.835938 17.988281 -3.570312 16.03125 -5.8125 C 14.070312 -8.050781 12.539062 -10.800781 11.4375 -14.0625 C 10.34375 -17.332031 9.796875 -21.007812 9.796875 -25.09375 Z M 36.59375 -8.328125 C 41.164062 -8.328125 44.816406 -9.832031 47.546875 -12.84375 C 50.285156 -15.863281 51.65625 -19.945312 51.65625 -25.09375 L 51.65625 -42.21875 C 51.65625 -47.363281 50.285156 -51.445312 47.546875 -54.46875 C 44.816406 -57.488281 41.164062 -59 36.59375 -59 C 31.613281 -59 27.738281 -57.53125 24.96875 -54.59375 C 22.195312 -51.65625 20.8125 -47.53125 20.8125 -42.21875 L 20.8125 -25.09375 C 20.8125 -19.945312 22.21875 -15.863281 25.03125 -12.84375 C 27.84375 -9.832031 31.695312 -8.328125 36.59375 -8.328125 Z M 36.59375 -8.328125 "/></g></g></g><g fill="#ffffff" fill-opacity="1"><g transform="translate(567.319741, 143.970403)"><g><path d="M 36.71875 1.21875 C 28.3125 1.21875 21.722656 -1.0625 16.953125 -5.625 C 12.179688 -10.195312 9.796875 -16.484375 9.796875 -24.484375 L 9.796875 -42.84375 C 9.796875 -50.832031 12.179688 -57.109375 16.953125 -61.671875 C 21.722656 -66.242188 28.3125 -68.53125 36.71875 -68.53125 C 45.125 -68.53125 51.710938 -66.242188 56.484375 -61.671875 C 61.253906 -57.109375 63.640625 -50.832031 63.640625 -42.84375 L 63.640625 -30.46875 L 20.8125 -30.46875 L 20.8125 -25.09375 C 20.8125 -19.945312 22.21875 -15.90625 25.03125 -12.96875 C 27.84375 -10.03125 31.738281 -8.5625 36.71875 -8.5625 C 40.382812 -8.5625 43.5625 -9.132812 46.25 -10.28125 C 48.945312 -11.425781 50.953125 -13.097656 52.265625 -15.296875 L 63.28125 -15.296875 C 61.882812 -10.160156 58.800781 -6.125 54.03125 -3.1875 C 49.257812 -0.25 43.488281 1.21875 36.71875 1.21875 Z M 52.625 -39.65625 L 52.625 -42.84375 C 52.625 -47.894531 51.238281 -51.804688 48.46875 -54.578125 C 45.695312 -57.359375 41.78125 -58.75 36.71875 -58.75 C 31.65625 -58.75 27.738281 -57.359375 24.96875 -54.578125 C 22.195312 -51.804688 20.8125 -47.894531 20.8125 -42.84375 L 20.8125 -39.65625 Z M 52.625 -39.65625 "/></g></g></g><g fill="#ffffff" fill-opacity="1"><g transform="translate(85.771106, 260.320885)"><g><path d="M 6.828125 -133.839844 L 6.828125 -17.90625 C 6.828125 -9.257812 5.613281 -4.097656 1.515625 0 L 74.203125 0 C 94.992188 0 111.230469 -15.175781 111.230469 -33.082031 C 111.230469 -53.871094 97.421875 -67.527344 66.464844 -70.5625 C 50.226562 -72.078125 22.457031 -73.75 22.457031 -79.96875 C 22.457031 -81.640625 23.976562 -82.398438 25.949219 -82.398438 C 34.292969 -82.398438 50.683594 -75.875 67.527344 -75.875 C 95.449219 -75.875 109.710938 -96.964844 109.710938 -114.113281 C 109.710938 -133.386719 96.054688 -151.746094 66.769531 -151.746094 L 1.515625 -151.746094 C 5.613281 -147.648438 6.828125 -142.488281 6.828125 -133.839844 Z M 55.691406 -121.398438 C 66.007812 -121.398438 71.625 -116.238281 71.625 -110.167969 C 71.625 -101.0625 56.601562 -89.226562 30.5 -89.226562 C 22.15625 -89.226562 14.871094 -93.019531 14.871094 -100 C 14.871094 -112.140625 34.902344 -121.398438 55.691406 -121.398438 Z M 16.84375 -70.5625 C 20.636719 -70.5625 26.707031 -67.980469 42.945312 -62.976562 C 65.402344 -55.996094 72.839844 -48.105469 72.839844 -40.667969 C 72.839844 -36.265625 69.804688 -29.894531 60.699219 -29.894531 C 45.980469 -29.894531 34.144531 -44.308594 25.796875 -54.171875 C 21.699219 -59.027344 15.023438 -66.007812 15.023438 -68.894531 C 15.023438 -69.652344 15.328125 -70.5625 16.84375 -70.5625 Z M 16.84375 -70.5625 "/></g></g></g><g fill="#ffffff" fill-opacity="1"><g transform="translate(200.028503, 260.320885)"><g><path d="M 0 -89.984375 C 0 -88.164062 1.820312 -88.011719 2.277344 -87.859375 C 8.042969 -85.886719 7.285156 -77.996094 7.285156 -76.175781 L 7.285156 -17.90625 C 7.285156 -9.257812 6.070312 -4.097656 1.972656 0 L 52.808594 0 C 48.710938 -4.097656 47.496094 -9.257812 47.496094 -17.90625 L 47.496094 -102.582031 C 47.496094 -105.617188 47.34375 -108.5 42.945312 -108.5 C 33.992188 -108.5 7.585938 -94.839844 1.667969 -91.957031 C 1.367188 -91.804688 0 -91.503906 0 -89.984375 Z M 27.011719 -160.699219 C 13.65625 -160.699219 4.855469 -151.898438 4.855469 -138.542969 C 4.855469 -125.191406 13.65625 -116.390625 27.011719 -116.390625 C 40.363281 -116.390625 49.164062 -125.191406 49.164062 -138.542969 C 49.164062 -151.898438 40.363281 -160.699219 27.011719 -160.699219 Z M 27.011719 -160.699219 "/></g></g></g><g fill="#ffffff" fill-opacity="1"><g transform="translate(253.591406, 260.320885)"><g><path d="M 52.351562 0 C 48.253906 -4.097656 47.042969 -9.257812 47.042969 -17.90625 L 47.042969 -98.636719 L 61.457031 -98.636719 L 61.457031 -106.222656 L 41.882812 -106.222656 C 28.984375 -106.222656 19.878906 -118.515625 19.878906 -128.527344 C 19.878906 -133.082031 23.824219 -135.507812 27.3125 -135.507812 C 42.488281 -135.507812 55.691406 -116.238281 65.402344 -116.238281 C 68.589844 -116.238281 69.804688 -120.488281 72.230469 -125.644531 C 74.8125 -130.957031 77.695312 -137.332031 77.695312 -142.640625 C 77.695312 -148.863281 61.609375 -154.023438 49.773438 -154.023438 C 18.664062 -154.023438 6.828125 -132.019531 6.828125 -107.890625 L 6.828125 -17.90625 C 6.828125 -9.257812 5.613281 -4.097656 1.515625 0 Z M 52.351562 0 "/></g></g></g><g fill="#ffffff" fill-opacity="1"><g transform="translate(334.315085, 260.320885)"><g><path d="M 1.515625 0 L 52.351562 0 C 48.253906 -4.097656 47.042969 -9.257812 47.042969 -17.90625 L 47.042969 -59.179688 C 47.042969 -67.527344 48.863281 -79.058594 61.609375 -79.058594 C 76.328125 -79.058594 74.660156 -65.707031 81.183594 -65.707031 C 83.914062 -65.707031 87.40625 -73.75 91.65625 -82.09375 C 95.449219 -89.683594 99.847656 -97.574219 99.847656 -99.394531 C 99.847656 -105.3125 88.921875 -108.5 80.878906 -108.5 C 57.054688 -108.5 53.414062 -87.40625 48.105469 -87.40625 C 47.496094 -87.40625 47.042969 -87.40625 47.042969 -91.046875 L 47.042969 -93.628906 C 47.042969 -101.367188 45.21875 -106.222656 38.695312 -106.222656 L 1.515625 -106.222656 C 5.613281 -102.125 6.828125 -96.964844 6.828125 -88.316406 L 6.828125 -17.90625 C 6.828125 -9.257812 5.613281 -4.097656 1.515625 0 Z M 1.515625 0 "/></g></g></g><g fill="#ffffff" fill-opacity="1"><g transform="translate(435.674891, 260.320885)"><g><path d="M 19.273438 -13.355469 C 29.589844 -2.882812 43.097656 2.277344 56.90625 2.277344 C 71.015625 2.277344 85.433594 -3.339844 96.511719 -14.566406 C 118.210938 -36.570312 118.816406 -71.472656 97.722656 -92.71875 C 87.40625 -103.1875 73.898438 -108.347656 60.089844 -108.347656 C 45.980469 -108.347656 31.5625 -102.730469 20.484375 -91.65625 C -1.367188 -69.652344 -1.820312 -34.75 19.273438 -13.355469 Z M 51.136719 -100.304688 C 61 -101.820312 72.230469 -81.792969 76.175781 -55.539062 C 80.121094 -28.832031 75.417969 -6.523438 65.707031 -5.007812 C 55.84375 -3.488281 44.613281 -23.367188 40.515625 -49.773438 C 36.417969 -76.328125 41.125 -98.785156 51.136719 -100.304688 Z M 51.136719 -100.304688 "/></g></g></g><g fill="#ffffff" fill-opacity="1"><g transform="translate(552.663537, 260.320885)"><g><path d="M 2.277344 -75.875 C 2.277344 -46.128906 34.292969 -36.417969 58.878906 -36.417969 C 70.410156 -36.417969 79.363281 -38.390625 84.976562 -38.390625 C 89.074219 -38.390625 91.351562 -37.328125 91.351562 -33.6875 C 91.351562 -25.796875 80.425781 -19.726562 69.953125 -19.726562 C 42.183594 -19.726562 26.707031 -39.757812 17.601562 -39.757812 C 11.382812 -39.757812 3.035156 -17.90625 3.035156 -11.382812 C 3.035156 -3.640625 33.230469 2.277344 54.023438 2.277344 C 71.167969 2.277344 99.546875 -6.375 99.546875 -34.445312 C 99.546875 -63.734375 69.652344 -71.625 42.792969 -76.328125 C 30.046875 -78.605469 19.878906 -81.640625 19.878906 -89.074219 C 19.878906 -96.664062 26.707031 -99.546875 32.019531 -99.546875 C 50.988281 -99.546875 65.554688 -69.652344 85.738281 -69.652344 C 91.199219 -69.652344 99.847656 -80.121094 99.847656 -90.289062 C 99.847656 -99.089844 77.847656 -108.5 51.136719 -108.5 C 28.226562 -108.5 2.277344 -101.214844 2.277344 -75.875 Z M 2.277344 -75.875 "/></g></g></g><g fill="#ffffff" fill-opacity="1"><g transform="translate(654.782055, 260.320885)"><g><path d="M 0 -106.222656 L 0 -98.636719 L 4.703125 -98.636719 C 11.835938 -98.636719 11.683594 -93.476562 11.683594 -88.921875 L 11.683594 -40.210938 C 11.683594 -19.421875 15.78125 2.277344 44.917969 2.277344 C 52.199219 2.277344 60.699219 -1.214844 61.457031 -6.675781 C 59.941406 -6.980469 58.726562 -6.828125 57.511719 -7.585938 C 49.46875 -12.59375 50.226562 -25.492188 50.226562 -37.328125 L 50.226562 -98.636719 L 63.277344 -98.636719 L 63.277344 -106.222656 L 50.226562 -106.222656 L 50.226562 -134.296875 C 50.226562 -136.417969 49.164062 -137.9375 47.34375 -137.9375 C 41.273438 -137.9375 15.328125 -106.222656 0 -106.222656 Z M 0 -106.222656 "/></g></g></g></svg>